# xmcd
#
# Track frame offsets:
# 150
# 20795
# 37457
# 53700
# 69767
# 90015
# 107647
# 123085
# 136640
# 151020
# 168792
# 191282
# 205800
# 220287
# 238400
# 253987
# 278000
# 292617
# 310350
# 327112
#
# Disc length: 4617 seconds
#
#
# Revision: 2
# Processed by: cddbd v1.5.2PL0 Copyright (c) Steve Scherf et al.
# Submitted via: FreeRIP 2.35 
#
DISCID=0e120714
DTITLE=The Band - The Best Of
DYEAR=1991
DGENRE=
TTITLE0=The Weight
TTITLE1=Stage Fright
TTITLE2=Across The Great Divide
TTITLE3=The Night They Drove Old Dixie Down
TTITLE4=Up On Cripple Creek
TTITLE5=This Wheel's On Fire
TTITLE6=Ain't Got No Home
TTITLE7=The Promised Land
TTITLE8=The Great Pretender
TTITLE9=Life Is A Carnival
TTITLE10=Chest Fever
TTITLE11=When You Awake
TTITLE12=I Shall Be Released
TTITLE13=The Shape I'm In
TTITLE14=Time To Kill
TTITLE15=Tears Of Rage
TTITLE16=To Kingdom Come
TTITLE17=Whispering Pines
TTITLE18=Rockin' Chair
TTITLE19=The Unfaithful Servant
EXTD=The Band first became widely known when they back Bob Dylan on his 1966 tour of the UK, and went on to record the historic Dylan "Basement Tapes" at their sprawling Woodstock headquarters, Big Pink. They performed together for over a decade and a ha
EXTD=lf, finall withdrawning from touring with their famous "Last Waltz" concert. This collection presents twenty of the finest tracks The Band has recorded.
EXTT0=
EXTT1=
EXTT2=
EXTT3=
EXTT4=
EXTT5=
EXTT6=
EXTT7=
EXTT8=
EXTT9=
EXTT10=
EXTT11=
EXTT12=
EXTT13=
EXTT14=
EXTT15=
EXTT16=
EXTT17=
EXTT18=
EXTT19=
PLAYORDER=
